<svg id="visual" viewBox="0 0 1700 1200" width="1700" height="1200" xmlns="http://www.w3.org/2000/svg" xmlns:xlink="http://www.w3.org/1999/xlink" version="1.1"><rect x="0" y="0" width="1700" height="1200" fill="#343434"></rect><path d="M0 563L70.8 587C141.7 611 283.3 659 425 666.8C566.7 674.7 708.3 642.3 850 627.5C991.7 612.7 1133.3 615.3 1275 633.7C1416.7 652 1558.3 686 1629.2 703L1700 720L1700 0L1629.2 0C1558.3 0 1416.7 0 1275 0C1133.3 0 991.7 0 850 0C708.3 0 566.7 0 425 0C283.3 0 141.7 0 70.8 0L0 0Z" fill="#d11111"></path><path d="M0 400L70.8 432C141.7 464 283.3 528 425 527.5C566.7 527 708.3 462 850 464.8C991.7 467.7 1133.3 538.3 1275 550.3C1416.7 562.3 1558.3 515.7 1629.2 492.3L1700 469L1700 0L1629.2 0C1558.3 0 1416.7 0 1275 0C1133.3 0 991.7 0 850 0C708.3 0 566.7 0 425 0C283.3 0 141.7 0 70.8 0L0 0Z" fill="#e42437"></path><path d="M0 447L70.8 424.5C141.7 402 283.3 357 425 319.8C566.7 282.7 708.3 253.3 850 273.2C991.7 293 1133.3 362 1275 365.8C1416.7 369.7 1558.3 308.3 1629.2 277.7L1700 247L1700 0L1629.2 0C1558.3 0 1416.7 0 1275 0C1133.3 0 991.7 0 850 0C708.3 0 566.7 0 425 0C283.3 0 141.7 0 70.8 0L0 0Z" fill="#f33959"></path><path d="M0 204L70.8 209.3C141.7 214.7 283.3 225.3 425 220.7C566.7 216 708.3 196 850 187.2C991.7 178.3 1133.3 180.7 1275 188.8C1416.7 197 1558.3 211 1629.2 218L1700 225L1700 0L1629.2 0C1558.3 0 1416.7 0 1275 0C1133.3 0 991.7 0 850 0C708.3 0 566.7 0 425 0C283.3 0 141.7 0 70.8 0L0 0Z" fill="#ff4f79"></path></svg>