<svg id="visual" viewBox="0 0 1700 1200" width="1700" height="1200" xmlns="http://www.w3.org/2000/svg" xmlns:xlink="http://www.w3.org/1999/xlink" version="1.1"><rect x="0" y="0" width="1700" height="1200" fill="#343434"></rect><path d="M0 806L56.7 800.7C113.3 795.3 226.7 784.7 340 795C453.3 805.3 566.7 836.7 680 846C793.3 855.3 906.7 842.7 1020 823.5C1133.3 804.3 1246.7 778.7 1360 776.8C1473.3 775 1586.7 797 1643.3 808L1700 819L1700 1201L1643.3 1201C1586.7 1201 1473.3 1201 1360 1201C1246.7 1201 1133.3 1201 1020 1201C906.7 1201 793.3 1201 680 1201C566.7 1201 453.3 1201 340 1201C226.7 1201 113.3 1201 56.7 1201L0 1201Z" fill="#25cf2f"></path><path d="M0 961L56.7 948.7C113.3 936.3 226.7 911.7 340 913.5C453.3 915.3 566.7 943.7 680 941.2C793.3 938.7 906.7 905.3 1020 888.8C1133.3 872.3 1246.7 872.7 1360 868.2C1473.3 863.7 1586.7 854.3 1643.3 849.7L1700 845L1700 1201L1643.3 1201C1586.7 1201 1473.3 1201 1360 1201C1246.7 1201 1133.3 1201 1020 1201C906.7 1201 793.3 1201 680 1201C566.7 1201 453.3 1201 340 1201C226.7 1201 113.3 1201 56.7 1201L0 1201Z" fill="#78df5e"></path><path d="M0 1060L56.7 1057.8C113.3 1055.7 226.7 1051.3 340 1031.8C453.3 1012.3 566.7 977.7 680 979.3C793.3 981 906.7 1019 1020 1021.8C1133.3 1024.7 1246.7 992.3 1360 989.2C1473.3 986 1586.7 1012 1643.3 1025L1700 1038L1700 1201L1643.3 1201C1586.7 1201 1473.3 1201 1360 1201C1246.7 1201 1133.3 1201 1020 1201C906.7 1201 793.3 1201 680 1201C566.7 1201 453.3 1201 340 1201C226.7 1201 113.3 1201 56.7 1201L0 1201Z" fill="#abef8a"></path><path d="M0 1039L56.7 1059.3C113.3 1079.7 226.7 1120.3 340 1127.2C453.3 1134 566.7 1107 680 1106.5C793.3 1106 906.7 1132 1020 1124.8C1133.3 1117.7 1246.7 1077.3 1360 1068.8C1473.3 1060.3 1586.7 1083.7 1643.3 1095.3L1700 1107L1700 1201L1643.3 1201C1586.7 1201 1473.3 1201 1360 1201C1246.7 1201 1133.3 1201 1020 1201C906.7 1201 793.3 1201 680 1201C566.7 1201 453.3 1201 340 1201C226.7 1201 113.3 1201 56.7 1201L0 1201Z" fill="#d6ffb7"></path></svg>