<svg id="visual" viewBox="0 0 1700 1200" width="1700" height="1200" xmlns="http://www.w3.org/2000/svg" xmlns:xlink="http://www.w3.org/1999/xlink" version="1.1"><rect x="0" y="0" width="1700" height="1200" fill="#343434"></rect><path d="M0 876L70.8 862.5C141.7 849 283.3 822 425 817.7C566.7 813.3 708.3 831.7 850 840C991.7 848.3 1133.3 846.7 1275 836.2C1416.7 825.7 1558.3 806.3 1629.2 796.7L1700 787L1700 1201L1629.2 1201C1558.3 1201 1416.7 1201 1275 1201C1133.3 1201 991.7 1201 850 1201C708.3 1201 566.7 1201 425 1201C283.3 1201 141.7 1201 70.8 1201L0 1201Z" fill="#d11111"></path><path d="M0 970L70.8 951.7C141.7 933.3 283.3 896.7 425 897C566.7 897.3 708.3 934.7 850 933.2C991.7 931.7 1133.3 891.3 1275 884.3C1416.7 877.3 1558.3 903.7 1629.2 916.8L1700 930L1700 1201L1629.2 1201C1558.3 1201 1416.7 1201 1275 1201C1133.3 1201 991.7 1201 850 1201C708.3 1201 566.7 1201 425 1201C283.3 1201 141.7 1201 70.8 1201L0 1201Z" fill="#e42437"></path><path d="M0 943L70.8 955.8C141.7 968.7 283.3 994.3 425 1015.7C566.7 1037 708.3 1054 850 1042.7C991.7 1031.3 1133.3 991.7 1275 989.3C1416.7 987 1558.3 1022 1629.2 1039.5L1700 1057L1700 1201L1629.2 1201C1558.3 1201 1416.7 1201 1275 1201C1133.3 1201 991.7 1201 850 1201C708.3 1201 566.7 1201 425 1201C283.3 1201 141.7 1201 70.8 1201L0 1201Z" fill="#f33959"></path><path d="M0 1082L70.8 1079C141.7 1076 283.3 1070 425 1072.7C566.7 1075.3 708.3 1086.7 850 1091.7C991.7 1096.7 1133.3 1095.3 1275 1090.7C1416.7 1086 1558.3 1078 1629.2 1074L1700 1070L1700 1201L1629.2 1201C1558.3 1201 1416.7 1201 1275 1201C1133.3 1201 991.7 1201 850 1201C708.3 1201 566.7 1201 425 1201C283.3 1201 141.7 1201 70.8 1201L0 1201Z" fill="#ff4f79"></path></svg>