<svg id="visual" viewBox="0 0 1700 1200" width="1700" height="1200" xmlns="http://www.w3.org/2000/svg" xmlns:xlink="http://www.w3.org/1999/xlink" version="1.1"><rect x="0" y="0" width="1700" height="1200" fill="#222d22"></rect><path d="M0 393L56.7 363.7C113.3 334.3 226.7 275.7 340 256.8C453.3 238 566.7 259 680 263.2C793.3 267.3 906.7 254.7 1020 257.2C1133.3 259.7 1246.7 277.3 1360 305.7C1473.3 334 1586.7 373 1643.3 392.5L1700 412L1700 0L1643.3 0C1586.7 0 1473.3 0 1360 0C1246.7 0 1133.3 0 1020 0C906.7 0 793.3 0 680 0C566.7 0 453.3 0 340 0C226.7 0 113.3 0 56.7 0L0 0Z" fill="#25cf2f"></path><path d="M0 234L56.7 219.2C113.3 204.3 226.7 174.7 340 175.2C453.3 175.7 566.7 206.3 680 227.2C793.3 248 906.7 259 1020 244.7C1133.3 230.3 1246.7 190.7 1360 172.5C1473.3 154.3 1586.7 157.7 1643.3 159.3L1700 161L1700 0L1643.3 0C1586.7 0 1473.3 0 1360 0C1246.7 0 1133.3 0 1020 0C906.7 0 793.3 0 680 0C566.7 0 453.3 0 340 0C226.7 0 113.3 0 56.7 0L0 0Z" fill="#d6ffb7"></path></svg>