<svg id="visual" viewBox="0 0 1700 1000" width="1700" height="1000" xmlns="http://www.w3.org/2000/svg" xmlns:xlink="http://www.w3.org/1999/xlink" version="1.1"><rect x="0" y="0" width="1700" height="1000" fill="#001220"></rect><path d="M0 768L28.3 769.7C56.7 771.3 113.3 774.7 170 768.8C226.7 763 283.3 748 340 747.8C396.7 747.7 453.3 762.3 510 774C566.7 785.7 623.3 794.3 680 803.7C736.7 813 793.3 823 850 826C906.7 829 963.3 825 1020 809C1076.7 793 1133.3 765 1190 765C1246.7 765 1303.3 793 1360 796.8C1416.7 800.7 1473.3 780.3 1530 788C1586.7 795.7 1643.3 831.3 1671.7 849.2L1700 867L1700 1001L1671.7 1001C1643.3 1001 1586.7 1001 1530 1001C1473.3 1001 1416.7 1001 1360 1001C1303.3 1001 1246.7 1001 1190 1001C1133.3 1001 1076.7 1001 1020 1001C963.3 1001 906.7 1001 850 1001C793.3 1001 736.7 1001 680 1001C623.3 1001 566.7 1001 510 1001C453.3 1001 396.7 1001 340 1001C283.3 1001 226.7 1001 170 1001C113.3 1001 56.7 1001 28.3 1001L0 1001Z" fill="#a813ad"></path><path d="M0 801L28.3 813.7C56.7 826.3 113.3 851.7 170 844.7C226.7 837.7 283.3 798.3 340 785.8C396.7 773.3 453.3 787.7 510 788.7C566.7 789.7 623.3 777.3 680 779.2C736.7 781 793.3 797 850 808C906.7 819 963.3 825 1020 831C1076.7 837 1133.3 843 1190 840.5C1246.7 838 1303.3 827 1360 813.2C1416.7 799.3 1473.3 782.7 1530 776.8C1586.7 771 1643.3 776 1671.7 778.5L1700 781L1700 1001L1671.7 1001C1643.3 1001 1586.7 1001 1530 1001C1473.3 1001 1416.7 1001 1360 1001C1303.3 1001 1246.7 1001 1190 1001C1133.3 1001 1076.7 1001 1020 1001C963.3 1001 906.7 1001 850 1001C793.3 1001 736.7 1001 680 1001C623.3 1001 566.7 1001 510 1001C453.3 1001 396.7 1001 340 1001C283.3 1001 226.7 1001 170 1001C113.3 1001 56.7 1001 28.3 1001L0 1001Z" fill="#911798"></path><path d="M0 891L28.3 877.8C56.7 864.7 113.3 838.3 170 833.7C226.7 829 283.3 846 340 843C396.7 840 453.3 817 510 821C566.7 825 623.3 856 680 871.8C736.7 887.7 793.3 888.3 850 887.2C906.7 886 963.3 883 1020 877.2C1076.7 871.3 1133.3 862.7 1190 851.8C1246.7 841 1303.3 828 1360 821.3C1416.7 814.7 1473.3 814.3 1530 821.5C1586.7 828.7 1643.3 843.3 1671.7 850.7L1700 858L1700 1001L1671.7 1001C1643.3 1001 1586.7 1001 1530 1001C1473.3 1001 1416.7 1001 1360 1001C1303.3 1001 1246.7 1001 1190 1001C1133.3 1001 1076.7 1001 1020 1001C963.3 1001 906.7 1001 850 1001C793.3 1001 736.7 1001 680 1001C623.3 1001 566.7 1001 510 1001C453.3 1001 396.7 1001 340 1001C283.3 1001 226.7 1001 170 1001C113.3 1001 56.7 1001 28.3 1001L0 1001Z" fill="#7c1884"></path><path d="M0 917L28.3 913.3C56.7 909.7 113.3 902.3 170 889.2C226.7 876 283.3 857 340 846.7C396.7 836.3 453.3 834.7 510 849.8C566.7 865 623.3 897 680 899.3C736.7 901.7 793.3 874.3 850 865.7C906.7 857 963.3 867 1020 872.3C1076.7 877.7 1133.3 878.3 1190 880.8C1246.7 883.3 1303.3 887.7 1360 880.8C1416.7 874 1473.3 856 1530 845.3C1586.7 834.7 1643.3 831.3 1671.7 829.7L1700 828L1700 1001L1671.7 1001C1643.3 1001 1586.7 1001 1530 1001C1473.3 1001 1416.7 1001 1360 1001C1303.3 1001 1246.7 1001 1190 1001C1133.3 1001 1076.7 1001 1020 1001C963.3 1001 906.7 1001 850 1001C793.3 1001 736.7 1001 680 1001C623.3 1001 566.7 1001 510 1001C453.3 1001 396.7 1001 340 1001C283.3 1001 226.7 1001 170 1001C113.3 1001 56.7 1001 28.3 1001L0 1001Z" fill="#671770"></path><path d="M0 950L28.3 936.5C56.7 923 113.3 896 170 882C226.7 868 283.3 867 340 873.3C396.7 879.7 453.3 893.3 510 905.8C566.7 918.3 623.3 929.7 680 923.2C736.7 916.7 793.3 892.3 850 892.2C906.7 892 963.3 916 1020 926.3C1076.7 936.7 1133.3 933.3 1190 933.5C1246.7 933.7 1303.3 937.3 1360 938.7C1416.7 940 1473.3 939 1530 935.5C1586.7 932 1643.3 926 1671.7 923L1700 920L1700 1001L1671.7 1001C1643.3 1001 1586.7 1001 1530 1001C1473.3 1001 1416.7 1001 1360 1001C1303.3 1001 1246.7 1001 1190 1001C1133.3 1001 1076.7 1001 1020 1001C963.3 1001 906.7 1001 850 1001C793.3 1001 736.7 1001 680 1001C623.3 1001 566.7 1001 510 1001C453.3 1001 396.7 1001 340 1001C283.3 1001 226.7 1001 170 1001C113.3 1001 56.7 1001 28.3 1001L0 1001Z" fill="#53155c"></path><path d="M0 897L28.3 901.7C56.7 906.3 113.3 915.7 170 922.8C226.7 930 283.3 935 340 937.3C396.7 939.7 453.3 939.3 510 937.2C566.7 935 623.3 931 680 929C736.7 927 793.3 927 850 925.8C906.7 924.7 963.3 922.3 1020 926.3C1076.7 930.3 1133.3 940.7 1190 938.7C1246.7 936.7 1303.3 922.3 1360 923.8C1416.7 925.3 1473.3 942.7 1530 947.3C1586.7 952 1643.3 944 1671.7 940L1700 936L1700 1001L1671.7 1001C1643.3 1001 1586.7 1001 1530 1001C1473.3 1001 1416.7 1001 1360 1001C1303.3 1001 1246.7 1001 1190 1001C1133.3 1001 1076.7 1001 1020 1001C963.3 1001 906.7 1001 850 1001C793.3 1001 736.7 1001 680 1001C623.3 1001 566.7 1001 510 1001C453.3 1001 396.7 1001 340 1001C283.3 1001 226.7 1001 170 1001C113.3 1001 56.7 1001 28.3 1001L0 1001Z" fill="#411349"></path><path d="M0 990L28.3 990C56.7 990 113.3 990 170 985.7C226.7 981.3 283.3 972.7 340 963.3C396.7 954 453.3 944 510 944.3C566.7 944.7 623.3 955.3 680 955C736.7 954.7 793.3 943.3 850 945.3C906.7 947.3 963.3 962.7 1020 967.7C1076.7 972.7 1133.3 967.3 1190 960C1246.7 952.7 1303.3 943.3 1360 944.3C1416.7 945.3 1473.3 956.7 1530 964.3C1586.7 972 1643.3 976 1671.7 978L1700 980L1700 1001L1671.7 1001C1643.3 1001 1586.7 1001 1530 1001C1473.3 1001 1416.7 1001 1360 1001C1303.3 1001 1246.7 1001 1190 1001C1133.3 1001 1076.7 1001 1020 1001C963.3 1001 906.7 1001 850 1001C793.3 1001 736.7 1001 680 1001C623.3 1001 566.7 1001 510 1001C453.3 1001 396.7 1001 340 1001C283.3 1001 226.7 1001 170 1001C113.3 1001 56.7 1001 28.3 1001L0 1001Z" fill="#2f0f36"></path></svg>