<svg id="visual" viewBox="0 0 1700 1000" width="1700" height="1000" xmlns="http://www.w3.org/2000/svg" xmlns:xlink="http://www.w3.org/1999/xlink" version="1.1"><rect x="0" y="0" width="1700" height="1000" fill="#001220"></rect><path d="M0 256L47.2 254.7C94.3 253.3 188.7 250.7 283.2 249.5C377.7 248.3 472.3 248.7 566.8 247.5C661.3 246.3 755.7 243.7 850 241C944.3 238.3 1038.7 235.7 1133.2 238.5C1227.7 241.3 1322.3 249.7 1416.8 254C1511.3 258.3 1605.7 258.7 1652.8 258.8L1700 259L1700 0L1652.8 0C1605.7 0 1511.3 0 1416.8 0C1322.3 0 1227.7 0 1133.2 0C1038.7 0 944.3 0 850 0C755.7 0 661.3 0 566.8 0C472.3 0 377.7 0 283.2 0C188.7 0 94.3 0 47.2 0L0 0Z" fill="#6e0d4b"></path><path d="M0 187L47.2 194C94.3 201 188.7 215 283.2 221.3C377.7 227.7 472.3 226.3 566.8 224.2C661.3 222 755.7 219 850 217.3C944.3 215.7 1038.7 215.3 1133.2 211C1227.7 206.7 1322.3 198.3 1416.8 198.5C1511.3 198.7 1605.7 207.3 1652.8 211.7L1700 216L1700 0L1652.8 0C1605.7 0 1511.3 0 1416.8 0C1322.3 0 1227.7 0 1133.2 0C1038.7 0 944.3 0 850 0C755.7 0 661.3 0 566.8 0C472.3 0 377.7 0 283.2 0C188.7 0 94.3 0 47.2 0L0 0Z" fill="#5d0f48"></path><path d="M0 144L47.2 144.5C94.3 145 188.7 146 283.2 147.2C377.7 148.3 472.3 149.7 566.8 149C661.3 148.3 755.7 145.7 850 150C944.3 154.3 1038.7 165.7 1133.2 168.7C1227.7 171.7 1322.3 166.3 1416.8 163C1511.3 159.7 1605.7 158.3 1652.8 157.7L1700 157L1700 0L1652.8 0C1605.7 0 1511.3 0 1416.8 0C1322.3 0 1227.7 0 1133.2 0C1038.7 0 944.3 0 850 0C755.7 0 661.3 0 566.8 0C472.3 0 377.7 0 283.2 0C188.7 0 94.3 0 47.2 0L0 0Z" fill="#4d1043"></path><path d="M0 114L47.2 115.3C94.3 116.7 188.7 119.3 283.2 121.8C377.7 124.3 472.3 126.7 566.8 126.8C661.3 127 755.7 125 850 124.8C944.3 124.7 1038.7 126.3 1133.2 126C1227.7 125.7 1322.3 123.3 1416.8 121.2C1511.3 119 1605.7 117 1652.8 116L1700 115L1700 0L1652.8 0C1605.7 0 1511.3 0 1416.8 0C1322.3 0 1227.7 0 1133.2 0C1038.7 0 944.3 0 850 0C755.7 0 661.3 0 566.8 0C472.3 0 377.7 0 283.2 0C188.7 0 94.3 0 47.2 0L0 0Z" fill="#3e103d"></path><path d="M0 72L47.2 69.5C94.3 67 188.7 62 283.2 63.2C377.7 64.3 472.3 71.7 566.8 74C661.3 76.3 755.7 73.7 850 69.8C944.3 66 1038.7 61 1133.2 60C1227.7 59 1322.3 62 1416.8 65.3C1511.3 68.7 1605.7 72.3 1652.8 74.2L1700 76L1700 0L1652.8 0C1605.7 0 1511.3 0 1416.8 0C1322.3 0 1227.7 0 1133.2 0C1038.7 0 944.3 0 850 0C755.7 0 661.3 0 566.8 0C472.3 0 377.7 0 283.2 0C188.7 0 94.3 0 47.2 0L0 0Z" fill="#2f0f36"></path></svg>