<svg id="visual" viewBox="0 0 1700 1000" width="1700" height="1000" xmlns="http://www.w3.org/2000/svg" xmlns:xlink="http://www.w3.org/1999/xlink" version="1.1"><path d="M0 191L170 191L170 161L340 161L340 111L510 111L510 161L680 161L680 251L850 251L850 161L1020 161L1020 181L1190 181L1190 241L1360 241L1360 231L1530 231L1530 231L1700 231L1700 171L1700 0L1700 0L1530 0L1530 0L1360 0L1360 0L1190 0L1190 0L1020 0L1020 0L850 0L850 0L680 0L680 0L510 0L510 0L340 0L340 0L170 0L170 0L0 0Z" fill="#2f0f36"></path><path d="M0 331L170 331L170 221L340 221L340 251L510 251L510 331L680 331L680 371L850 371L850 251L1020 251L1020 341L1190 341L1190 361L1360 361L1360 381L1530 381L1530 351L1700 351L1700 311L1700 169L1700 229L1530 229L1530 229L1360 229L1360 239L1190 239L1190 179L1020 179L1020 159L850 159L850 249L680 249L680 159L510 159L510 109L340 109L340 159L170 159L170 189L0 189Z" fill="#57144e"></path><path d="M0 581L170 581L170 621L340 621L340 491L510 491L510 521L680 521L680 621L850 621L850 601L1020 601L1020 711L1190 711L1190 571L1360 571L1360 601L1530 601L1530 551L1700 551L1700 501L1700 309L1700 349L1530 349L1530 379L1360 379L1360 359L1190 359L1190 339L1020 339L1020 249L850 249L850 369L680 369L680 329L510 329L510 249L340 249L340 219L170 219L170 329L0 329Z" fill="#85145f"></path><path d="M0 741L170 741L170 791L340 791L340 601L510 601L510 661L680 661L680 771L850 771L850 711L1020 711L1020 881L1190 881L1190 731L1360 731L1360 711L1530 711L1530 661L1700 661L1700 651L1700 499L1700 549L1530 549L1530 599L1360 599L1360 569L1190 569L1190 709L1020 709L1020 599L850 599L850 619L680 619L680 519L510 519L510 489L340 489L340 619L170 619L170 579L0 579Z" fill="#b50d69"></path><path d="M0 1001L170 1001L170 1001L340 1001L340 1001L510 1001L510 1001L680 1001L680 1001L850 1001L850 1001L1020 1001L1020 1001L1190 1001L1190 1001L1360 1001L1360 1001L1530 1001L1530 1001L1700 1001L1700 1001L1700 649L1700 659L1530 659L1530 709L1360 709L1360 729L1190 729L1190 879L1020 879L1020 709L850 709L850 769L680 769L680 659L510 659L510 599L340 599L340 789L170 789L170 739L0 739Z" fill="#e60a6a"></path></svg>