<svg id="visual" viewBox="0 0 1920 1080" width="1920" height="1080" xmlns="http://www.w3.org/2000/svg" xmlns:xlink="http://www.w3.org/1999/xlink" version="1.1"><rect x="0" y="0" width="1920" height="1080" fill="#191513"></rect><path d="M0 772L32 764C64 756 128 740 192 750C256 760 320 796 384 817.2C448 838.3 512 844.7 576 826.2C640 807.7 704 764.3 768 759C832 753.7 896 786.3 960 800C1024 813.7 1088 808.3 1152 804.2C1216 800 1280 797 1344 785.7C1408 774.3 1472 754.7 1536 751.2C1600 747.7 1664 760.3 1728 772.2C1792 784 1856 795 1888 800.5L1920 806L1920 1081L1888 1081C1856 1081 1792 1081 1728 1081C1664 1081 1600 1081 1536 1081C1472 1081 1408 1081 1344 1081C1280 1081 1216 1081 1152 1081C1088 1081 1024 1081 960 1081C896 1081 832 1081 768 1081C704 1081 640 1081 576 1081C512 1081 448 1081 384 1081C320 1081 256 1081 192 1081C128 1081 64 1081 32 1081L0 1081Z" fill="#fa7268"></path><path d="M0 851L32 848C64 845 128 839 192 837.8C256 836.7 320 840.3 384 849.5C448 858.7 512 873.3 576 876.7C640 880 704 872 768 863.3C832 854.7 896 845.3 960 833.8C1024 822.3 1088 808.7 1152 815.3C1216 822 1280 849 1344 853.7C1408 858.3 1472 840.7 1536 845C1600 849.3 1664 875.7 1728 877.7C1792 879.7 1856 857.3 1888 846.2L1920 835L1920 1081L1888 1081C1856 1081 1792 1081 1728 1081C1664 1081 1600 1081 1536 1081C1472 1081 1408 1081 1344 1081C1280 1081 1216 1081 1152 1081C1088 1081 1024 1081 960 1081C896 1081 832 1081 768 1081C704 1081 640 1081 576 1081C512 1081 448 1081 384 1081C320 1081 256 1081 192 1081C128 1081 64 1081 32 1081L0 1081Z" fill="#ef5f67"></path><path d="M0 903L32 893.3C64 883.7 128 864.3 192 866C256 867.7 320 890.3 384 907.8C448 925.3 512 937.7 576 930.3C640 923 704 896 768 896.3C832 896.7 896 924.3 960 927.5C1024 930.7 1088 909.3 1152 896.8C1216 884.3 1280 880.7 1344 890.7C1408 900.7 1472 924.3 1536 921.8C1600 919.3 1664 890.7 1728 889.8C1792 889 1856 916 1888 929.5L1920 943L1920 1081L1888 1081C1856 1081 1792 1081 1728 1081C1664 1081 1600 1081 1536 1081C1472 1081 1408 1081 1344 1081C1280 1081 1216 1081 1152 1081C1088 1081 1024 1081 960 1081C896 1081 832 1081 768 1081C704 1081 640 1081 576 1081C512 1081 448 1081 384 1081C320 1081 256 1081 192 1081C128 1081 64 1081 32 1081L0 1081Z" fill="#e34c67"></path><path d="M0 956L32 961.5C64 967 128 978 192 971.5C256 965 320 941 384 939.8C448 938.7 512 960.3 576 972.7C640 985 704 988 768 987.5C832 987 896 983 960 976.5C1024 970 1088 961 1152 960.8C1216 960.7 1280 969.3 1344 975.7C1408 982 1472 986 1536 980C1600 974 1664 958 1728 953.2C1792 948.3 1856 954.7 1888 957.8L1920 961L1920 1081L1888 1081C1856 1081 1792 1081 1728 1081C1664 1081 1600 1081 1536 1081C1472 1081 1408 1081 1344 1081C1280 1081 1216 1081 1152 1081C1088 1081 1024 1081 960 1081C896 1081 832 1081 768 1081C704 1081 640 1081 576 1081C512 1081 448 1081 384 1081C320 1081 256 1081 192 1081C128 1081 64 1081 32 1081L0 1081Z" fill="#d53867"></path><path d="M0 988L32 989.3C64 990.7 128 993.3 192 996C256 998.7 320 1001.3 384 1000.8C448 1000.3 512 996.7 576 1001.5C640 1006.3 704 1019.7 768 1021.2C832 1022.7 896 1012.3 960 1008.3C1024 1004.3 1088 1006.7 1152 1010.7C1216 1014.7 1280 1020.3 1344 1016.7C1408 1013 1472 1000 1536 1001C1600 1002 1664 1017 1728 1017.5C1792 1018 1856 1004 1888 997L1920 990L1920 1081L1888 1081C1856 1081 1792 1081 1728 1081C1664 1081 1600 1081 1536 1081C1472 1081 1408 1081 1344 1081C1280 1081 1216 1081 1152 1081C1088 1081 1024 1081 960 1081C896 1081 832 1081 768 1081C704 1081 640 1081 576 1081C512 1081 448 1081 384 1081C320 1081 256 1081 192 1081C128 1081 64 1081 32 1081L0 1081Z" fill="#c62368"></path></svg>