<svg id="visual" viewBox="0 0 1920 1080" width="1920" height="1080" xmlns="http://www.w3.org/2000/svg" xmlns:xlink="http://www.w3.org/1999/xlink" version="1.1"><rect x="0" y="0" width="1920" height="1080" fill="#191513"></rect><path d="M0 506L45.7 493.7C91.3 481.3 182.7 456.7 274.2 481.5C365.7 506.3 457.3 580.7 548.8 606.5C640.3 632.3 731.7 609.7 823 564.3C914.3 519 1005.7 451 1097 440.7C1188.3 430.3 1279.7 477.7 1371.2 494.3C1462.7 511 1554.3 497 1645.8 486C1737.3 475 1828.7 467 1874.3 463L1920 459L1920 0L1874.3 0C1828.7 0 1737.3 0 1645.8 0C1554.3 0 1462.7 0 1371.2 0C1279.7 0 1188.3 0 1097 0C1005.7 0 914.3 0 823 0C731.7 0 640.3 0 548.8 0C457.3 0 365.7 0 274.2 0C182.7 0 91.3 0 45.7 0L0 0Z" fill="#fa7268"></path><path d="M0 298L45.7 313C91.3 328 182.7 358 274.2 378.7C365.7 399.3 457.3 410.7 548.8 423.2C640.3 435.7 731.7 449.3 823 433.2C914.3 417 1005.7 371 1097 342C1188.3 313 1279.7 301 1371.2 298.5C1462.7 296 1554.3 303 1645.8 310.5C1737.3 318 1828.7 326 1874.3 330L1920 334L1920 0L1874.3 0C1828.7 0 1737.3 0 1645.8 0C1554.3 0 1462.7 0 1371.2 0C1279.7 0 1188.3 0 1097 0C1005.7 0 914.3 0 823 0C731.7 0 640.3 0 548.8 0C457.3 0 365.7 0 274.2 0C182.7 0 91.3 0 45.7 0L0 0Z" fill="#e34c67"></path><path d="M0 186L45.7 186.7C91.3 187.3 182.7 188.7 274.2 208.3C365.7 228 457.3 266 548.8 270.7C640.3 275.3 731.7 246.7 823 223.2C914.3 199.7 1005.7 181.3 1097 189.5C1188.3 197.7 1279.7 232.3 1371.2 240.5C1462.7 248.7 1554.3 230.3 1645.8 218.2C1737.3 206 1828.7 200 1874.3 197L1920 194L1920 0L1874.3 0C1828.7 0 1737.3 0 1645.8 0C1554.3 0 1462.7 0 1371.2 0C1279.7 0 1188.3 0 1097 0C1005.7 0 914.3 0 823 0C731.7 0 640.3 0 548.8 0C457.3 0 365.7 0 274.2 0C182.7 0 91.3 0 45.7 0L0 0Z" fill="#c62368"></path></svg>