<svg id="visual" viewBox="0 0 1920 1080" width="1920" height="1080" xmlns="http://www.w3.org/2000/svg" xmlns:xlink="http://www.w3.org/1999/xlink" version="1.1"><rect x="0" y="0" width="1920" height="1080" fill="#191513"></rect><path d="M0 501L45.7 460.2C91.3 419.3 182.7 337.7 274.2 310.5C365.7 283.3 457.3 310.7 548.8 317.8C640.3 325 731.7 312 823 300.7C914.3 289.3 1005.7 279.7 1097 277.5C1188.3 275.3 1279.7 280.7 1371.2 306.8C1462.7 333 1554.3 380 1645.8 392.5C1737.3 405 1828.7 383 1874.3 372L1920 361L1920 1081L1874.3 1081C1828.7 1081 1737.3 1081 1645.8 1081C1554.3 1081 1462.7 1081 1371.2 1081C1279.7 1081 1188.3 1081 1097 1081C1005.7 1081 914.3 1081 823 1081C731.7 1081 640.3 1081 548.8 1081C457.3 1081 365.7 1081 274.2 1081C182.7 1081 91.3 1081 45.7 1081L0 1081Z" fill="#fa7268"></path><path d="M0 446L45.7 486.2C91.3 526.3 182.7 606.7 274.2 622.8C365.7 639 457.3 591 548.8 595.7C640.3 600.3 731.7 657.7 823 687C914.3 716.3 1005.7 717.7 1097 681.5C1188.3 645.3 1279.7 571.7 1371.2 571.8C1462.7 572 1554.3 646 1645.8 674.5C1737.3 703 1828.7 686 1874.3 677.5L1920 669L1920 1081L1874.3 1081C1828.7 1081 1737.3 1081 1645.8 1081C1554.3 1081 1462.7 1081 1371.2 1081C1279.7 1081 1188.3 1081 1097 1081C1005.7 1081 914.3 1081 823 1081C731.7 1081 640.3 1081 548.8 1081C457.3 1081 365.7 1081 274.2 1081C182.7 1081 91.3 1081 45.7 1081L0 1081Z" fill="#e34c67"></path><path d="M0 813L45.7 819C91.3 825 182.7 837 274.2 854.2C365.7 871.3 457.3 893.7 548.8 865.5C640.3 837.3 731.7 758.7 823 723.7C914.3 688.7 1005.7 697.3 1097 722.5C1188.3 747.7 1279.7 789.3 1371.2 807.2C1462.7 825 1554.3 819 1645.8 816.8C1737.3 814.7 1828.7 816.3 1874.3 817.2L1920 818L1920 1081L1874.3 1081C1828.7 1081 1737.3 1081 1645.8 1081C1554.3 1081 1462.7 1081 1371.2 1081C1279.7 1081 1188.3 1081 1097 1081C1005.7 1081 914.3 1081 823 1081C731.7 1081 640.3 1081 548.8 1081C457.3 1081 365.7 1081 274.2 1081C182.7 1081 91.3 1081 45.7 1081L0 1081Z" fill="#c62368"></path></svg>