<svg id="visual" viewBox="0 0 1920 1080" width="1920" height="1080" xmlns="http://www.w3.org/2000/svg" xmlns:xlink="http://www.w3.org/1999/xlink" version="1.1"><rect x="0" y="0" width="1920" height="1080" fill="#191513"></rect><path d="M0 532L53.3 557C106.7 582 213.3 632 320 636.3C426.7 640.7 533.3 599.3 640 587.3C746.7 575.3 853.3 592.7 960 589.2C1066.7 585.7 1173.3 561.3 1280 544.8C1386.7 528.3 1493.3 519.7 1600 537.7C1706.7 555.7 1813.3 600.3 1866.7 622.7L1920 645L1920 0L1866.7 0C1813.3 0 1706.7 0 1600 0C1493.3 0 1386.7 0 1280 0C1173.3 0 1066.7 0 960 0C853.3 0 746.7 0 640 0C533.3 0 426.7 0 320 0C213.3 0 106.7 0 53.3 0L0 0Z" fill="#fa7268"></path><path d="M0 530L53.3 518.5C106.7 507 213.3 484 320 489.7C426.7 495.3 533.3 529.7 640 528.8C746.7 528 853.3 492 960 469.2C1066.7 446.3 1173.3 436.7 1280 457.8C1386.7 479 1493.3 531 1600 554.3C1706.7 577.7 1813.3 572.3 1866.7 569.7L1920 567L1920 0L1866.7 0C1813.3 0 1706.7 0 1600 0C1493.3 0 1386.7 0 1280 0C1173.3 0 1066.7 0 960 0C853.3 0 746.7 0 640 0C533.3 0 426.7 0 320 0C213.3 0 106.7 0 53.3 0L0 0Z" fill="#ef5f67"></path><path d="M0 484L53.3 472.5C106.7 461 213.3 438 320 421.7C426.7 405.3 533.3 395.7 640 401.8C746.7 408 853.3 430 960 440.2C1066.7 450.3 1173.3 448.7 1280 452.7C1386.7 456.7 1493.3 466.3 1600 445.8C1706.7 425.3 1813.3 374.7 1866.7 349.3L1920 324L1920 0L1866.7 0C1813.3 0 1706.7 0 1600 0C1493.3 0 1386.7 0 1280 0C1173.3 0 1066.7 0 960 0C853.3 0 746.7 0 640 0C533.3 0 426.7 0 320 0C213.3 0 106.7 0 53.3 0L0 0Z" fill="#e34c67"></path><path d="M0 244L53.3 266C106.7 288 213.3 332 320 321.7C426.7 311.3 533.3 246.7 640 216C746.7 185.3 853.3 188.7 960 201.3C1066.7 214 1173.3 236 1280 246C1386.7 256 1493.3 254 1600 244.5C1706.7 235 1813.3 218 1866.7 209.5L1920 201L1920 0L1866.7 0C1813.3 0 1706.7 0 1600 0C1493.3 0 1386.7 0 1280 0C1173.3 0 1066.7 0 960 0C853.3 0 746.7 0 640 0C533.3 0 426.7 0 320 0C213.3 0 106.7 0 53.3 0L0 0Z" fill="#d53867"></path><path d="M0 96L53.3 115C106.7 134 213.3 172 320 190.7C426.7 209.3 533.3 208.7 640 190.5C746.7 172.3 853.3 136.7 960 116.3C1066.7 96 1173.3 91 1280 88.3C1386.7 85.7 1493.3 85.3 1600 110.2C1706.7 135 1813.3 185 1866.7 210L1920 235L1920 0L1866.7 0C1813.3 0 1706.7 0 1600 0C1493.3 0 1386.7 0 1280 0C1173.3 0 1066.7 0 960 0C853.3 0 746.7 0 640 0C533.3 0 426.7 0 320 0C213.3 0 106.7 0 53.3 0L0 0Z" fill="#c62368"></path></svg>