<svg id="visual" viewBox="0 0 1920 1080" width="1920" height="1080" xmlns="http://www.w3.org/2000/svg" xmlns:xlink="http://www.w3.org/1999/xlink" version="1.1"><path d="M0 77L29.2 87.7C58.3 98.3 116.7 119.7 174.8 125C233 130.3 291 119.7 349.2 121.5C407.3 123.3 465.7 137.7 523.8 146.7C582 155.7 640 159.3 698.2 150.3C756.3 141.3 814.7 119.7 872.8 121.5C931 123.3 989 148.7 1047.2 150.5C1105.3 152.3 1163.7 130.7 1221.8 121.7C1280 112.7 1338 116.3 1396.2 120C1454.3 123.7 1512.7 127.3 1570.8 130.8C1629 134.3 1687 137.7 1745.2 134C1803.3 130.3 1861.7 119.7 1890.8 114.3L1920 109L1920 0L1890.8 0C1861.7 0 1803.3 0 1745.2 0C1687 0 1629 0 1570.8 0C1512.7 0 1454.3 0 1396.2 0C1338 0 1280 0 1221.8 0C1163.7 0 1105.3 0 1047.2 0C989 0 931 0 872.8 0C814.7 0 756.3 0 698.2 0C640 0 582 0 523.8 0C465.7 0 407.3 0 349.2 0C291 0 233 0 174.8 0C116.7 0 58.3 0 29.2 0L0 0Z" fill="#c62368"></path><path d="M0 325L29.2 337.7C58.3 350.3 116.7 375.7 174.8 363C233 350.3 291 299.7 349.2 292.3C407.3 285 465.7 321 523.8 342.7C582 364.3 640 371.7 698.2 346.5C756.3 321.3 814.7 263.7 872.8 258.3C931 253 989 300 1047.2 314.5C1105.3 329 1163.7 311 1221.8 309.2C1280 307.3 1338 321.7 1396.2 312.7C1454.3 303.7 1512.7 271.3 1570.8 287.5C1629 303.7 1687 368.3 1745.2 370C1803.3 371.7 1861.7 310.3 1890.8 279.7L1920 249L1920 107L1890.8 112.3C1861.7 117.7 1803.3 128.3 1745.2 132C1687 135.7 1629 132.3 1570.8 128.8C1512.7 125.3 1454.3 121.7 1396.2 118C1338 114.3 1280 110.7 1221.8 119.7C1163.7 128.7 1105.3 150.3 1047.2 148.5C989 146.7 931 121.3 872.8 119.5C814.7 117.7 756.3 139.3 698.2 148.3C640 157.3 582 153.7 523.8 144.7C465.7 135.7 407.3 121.3 349.2 119.5C291 117.7 233 128.3 174.8 123C116.7 117.7 58.3 96.3 29.2 85.7L0 75Z" fill="#d53867"></path><path d="M0 476L29.2 495.8C58.3 515.7 116.7 555.3 174.8 551.8C233 548.3 291 501.7 349.2 494.5C407.3 487.3 465.7 519.7 523.8 544.8C582 570 640 588 698.2 597C756.3 606 814.7 606 872.8 611.3C931 616.7 989 627.3 1047.2 650.7C1105.3 674 1163.7 710 1221.8 704.7C1280 699.3 1338 652.7 1396.2 622.2C1454.3 591.7 1512.7 577.3 1570.8 595.3C1629 613.3 1687 663.7 1745.2 654.7C1803.3 645.7 1861.7 577.3 1890.8 543.2L1920 509L1920 247L1890.8 277.7C1861.7 308.3 1803.3 369.7 1745.2 368C1687 366.3 1629 301.7 1570.8 285.5C1512.7 269.3 1454.3 301.7 1396.2 310.7C1338 319.7 1280 305.3 1221.8 307.2C1163.7 309 1105.3 327 1047.2 312.5C989 298 931 251 872.8 256.3C814.7 261.7 756.3 319.3 698.2 344.5C640 369.7 582 362.3 523.8 340.7C465.7 319 407.3 283 349.2 290.3C291 297.7 233 348.3 174.8 361C116.7 373.7 58.3 348.3 29.2 335.7L0 323Z" fill="#e34c67"></path><path d="M0 897L29.2 893.5C58.3 890 116.7 883 174.8 899.3C233 915.7 291 955.3 349.2 973.3C407.3 991.3 465.7 987.7 523.8 982.2C582 976.7 640 969.3 698.2 971.2C756.3 973 814.7 984 872.8 975C931 966 989 937 1047.2 928C1105.3 919 1163.7 930 1221.8 935.5C1280 941 1338 941 1396.2 930.2C1454.3 919.3 1512.7 897.7 1570.8 901.2C1629 904.7 1687 933.3 1745.2 935.2C1803.3 937 1861.7 912 1890.8 899.5L1920 887L1920 507L1890.8 541.2C1861.7 575.3 1803.3 643.7 1745.2 652.7C1687 661.7 1629 611.3 1570.8 593.3C1512.7 575.3 1454.3 589.7 1396.2 620.2C1338 650.7 1280 697.3 1221.8 702.7C1163.7 708 1105.3 672 1047.2 648.7C989 625.3 931 614.7 872.8 609.3C814.7 604 756.3 604 698.2 595C640 586 582 568 523.8 542.8C465.7 517.7 407.3 485.3 349.2 492.5C291 499.7 233 546.3 174.8 549.8C116.7 553.3 58.3 513.7 29.2 493.8L0 474Z" fill="#ef5f67"></path><path d="M0 1081L29.2 1081C58.3 1081 116.7 1081 174.8 1081C233 1081 291 1081 349.2 1081C407.3 1081 465.7 1081 523.8 1081C582 1081 640 1081 698.2 1081C756.3 1081 814.7 1081 872.8 1081C931 1081 989 1081 1047.2 1081C1105.3 1081 1163.7 1081 1221.8 1081C1280 1081 1338 1081 1396.2 1081C1454.3 1081 1512.7 1081 1570.8 1081C1629 1081 1687 1081 1745.2 1081C1803.3 1081 1861.7 1081 1890.8 1081L1920 1081L1920 885L1890.8 897.5C1861.7 910 1803.3 935 1745.2 933.2C1687 931.3 1629 902.7 1570.8 899.2C1512.7 895.7 1454.3 917.3 1396.2 928.2C1338 939 1280 939 1221.8 933.5C1163.7 928 1105.3 917 1047.2 926C989 935 931 964 872.8 973C814.7 982 756.3 971 698.2 969.2C640 967.3 582 974.7 523.8 980.2C465.7 985.7 407.3 989.3 349.2 971.3C291 953.3 233 913.7 174.8 897.3C116.7 881 58.3 888 29.2 891.5L0 895Z" fill="#fa7268"></path></svg>