<svg id="visual" viewBox="0 0 900 600" width="900" height="600" xmlns="http://www.w3.org/2000/svg" xmlns:xlink="http://www.w3.org/1999/xlink" version="1.1"><path d="M0 79L13.7 72C27.3 65 54.7 51 82 44C109.3 37 136.7 37 163.8 35C191 33 218 29 245.2 28C272.3 27 299.7 29 327 38C354.3 47 381.7 63 409 66C436.3 69 463.7 59 491 50C518.3 41 545.7 33 573 31C600.3 29 627.7 33 654.8 39C682 45 709 53 736.2 57C763.3 61 790.7 61 818 58C845.3 55 872.7 49 886.3 46L900 43L900 0L886.3 0C872.7 0 845.3 0 818 0C790.7 0 763.3 0 736.2 0C709 0 682 0 654.8 0C627.7 0 600.3 0 573 0C545.7 0 518.3 0 491 0C463.7 0 436.3 0 409 0C381.7 0 354.3 0 327 0C299.7 0 272.3 0 245.2 0C218 0 191 0 163.8 0C136.7 0 109.3 0 82 0C54.7 0 27.3 0 13.7 0L0 0Z" fill="#6efa87"></path><path d="M0 97L13.7 94C27.3 91 54.7 85 82 84C109.3 83 136.7 87 163.8 88C191 89 218 87 245.2 82C272.3 77 299.7 69 327 72C354.3 75 381.7 89 409 96C436.3 103 463.7 103 491 97C518.3 91 545.7 79 573 74C600.3 69 627.7 71 654.8 75C682 79 709 85 736.2 88C763.3 91 790.7 91 818 91C845.3 91 872.7 91 886.3 91L900 91L900 41L886.3 44C872.7 47 845.3 53 818 56C790.7 59 763.3 59 736.2 55C709 51 682 43 654.8 37C627.7 31 600.3 27 573 29C545.7 31 518.3 39 491 48C463.7 57 436.3 67 409 64C381.7 61 354.3 45 327 36C299.7 27 272.3 25 245.2 26C218 27 191 31 163.8 33C136.7 35 109.3 35 82 42C54.7 49 27.3 63 13.7 70L0 77Z" fill="#57de6d"></path><path d="M0 157L13.7 148C27.3 139 54.7 121 82 117C109.3 113 136.7 123 163.8 125C191 127 218 121 245.2 117C272.3 113 299.7 111 327 118C354.3 125 381.7 141 409 144C436.3 147 463.7 137 491 132C518.3 127 545.7 127 573 126C600.3 125 627.7 123 654.8 124C682 125 709 129 736.2 133C763.3 137 790.7 141 818 142C845.3 143 872.7 141 886.3 140L900 139L900 89L886.3 89C872.7 89 845.3 89 818 89C790.7 89 763.3 89 736.2 86C709 83 682 77 654.8 73C627.7 69 600.3 67 573 72C545.7 77 518.3 89 491 95C463.7 101 436.3 101 409 94C381.7 87 354.3 73 327 70C299.7 67 272.3 75 245.2 80C218 85 191 87 163.8 86C136.7 85 109.3 81 82 82C54.7 83 27.3 89 13.7 92L0 95Z" fill="#3fc354"></path><path d="M0 253L13.7 249C27.3 245 54.7 237 82 242C109.3 247 136.7 265 163.8 272C191 279 218 275 245.2 279C272.3 283 299.7 295 327 298C354.3 301 381.7 295 409 297C436.3 299 463.7 309 491 322C518.3 335 545.7 351 573 340C600.3 329 627.7 291 654.8 275C682 259 709 265 736.2 271C763.3 277 790.7 283 818 278C845.3 273 872.7 257 886.3 249L900 241L900 137L886.3 138C872.7 139 845.3 141 818 140C790.7 139 763.3 135 736.2 131C709 127 682 123 654.8 122C627.7 121 600.3 123 573 124C545.7 125 518.3 125 491 130C463.7 135 436.3 145 409 142C381.7 139 354.3 123 327 116C299.7 109 272.3 111 245.2 115C218 119 191 125 163.8 123C136.7 121 109.3 111 82 115C54.7 119 27.3 137 13.7 146L0 155Z" fill="#2aad41"></path><path d="M0 295L13.7 287C27.3 279 54.7 263 82 268C109.3 273 136.7 299 163.8 310C191 321 218 317 245.2 320C272.3 323 299.7 333 327 334C354.3 335 381.7 327 409 327C436.3 327 463.7 335 491 347C518.3 359 545.7 375 573 368C600.3 361 627.7 331 654.8 317C682 303 709 305 736.2 306C763.3 307 790.7 307 818 303C845.3 299 872.7 291 886.3 287L900 283L900 239L886.3 247C872.7 255 845.3 271 818 276C790.7 281 763.3 275 736.2 269C709 263 682 257 654.8 273C627.7 289 600.3 327 573 338C545.7 349 518.3 333 491 320C463.7 307 436.3 297 409 295C381.7 293 354.3 299 327 296C299.7 293 272.3 281 245.2 277C218 273 191 277 163.8 270C136.7 263 109.3 245 82 240C54.7 235 27.3 243 13.7 247L0 251Z" fill="#2aad41"></path><path d="M0 367L13.7 365C27.3 363 54.7 359 82 364C109.3 369 136.7 383 163.8 388C191 393 218 389 245.2 398C272.3 407 299.7 429 327 427C354.3 425 381.7 399 409 389C436.3 379 463.7 385 491 401C518.3 417 545.7 443 573 443C600.3 443 627.7 417 654.8 401C682 385 709 379 736.2 382C763.3 385 790.7 397 818 396C845.3 395 872.7 381 886.3 374L900 367L900 281L886.3 285C872.7 289 845.3 297 818 301C790.7 305 763.3 305 736.2 304C709 303 682 301 654.8 315C627.7 329 600.3 359 573 366C545.7 373 518.3 357 491 345C463.7 333 436.3 325 409 325C381.7 325 354.3 333 327 332C299.7 331 272.3 321 245.2 318C218 315 191 319 163.8 308C136.7 297 109.3 271 82 266C54.7 261 27.3 277 13.7 285L0 293Z" fill="#3fc354"></path><path d="M0 409L13.7 417C27.3 425 54.7 441 82 448C109.3 455 136.7 453 163.8 448C191 443 218 435 245.2 443C272.3 451 299.7 475 327 479C354.3 483 381.7 467 409 463C436.3 459 463.7 467 491 477C518.3 487 545.7 499 573 497C600.3 495 627.7 479 654.8 474C682 469 709 475 736.2 485C763.3 495 790.7 509 818 504C845.3 499 872.7 475 886.3 463L900 451L900 365L886.3 372C872.7 379 845.3 393 818 394C790.7 395 763.3 383 736.2 380C709 377 682 383 654.8 399C627.7 415 600.3 441 573 441C545.7 441 518.3 415 491 399C463.7 383 436.3 377 409 387C381.7 397 354.3 423 327 425C299.7 427 272.3 405 245.2 396C218 387 191 391 163.8 386C136.7 381 109.3 367 82 362C54.7 357 27.3 361 13.7 363L0 365Z" fill="#57de6d"></path><path d="M0 601L13.7 601C27.3 601 54.7 601 82 601C109.3 601 136.7 601 163.8 601C191 601 218 601 245.2 601C272.3 601 299.7 601 327 601C354.3 601 381.7 601 409 601C436.3 601 463.7 601 491 601C518.3 601 545.7 601 573 601C600.3 601 627.7 601 654.8 601C682 601 709 601 736.2 601C763.3 601 790.7 601 818 601C845.3 601 872.7 601 886.3 601L900 601L900 449L886.3 461C872.7 473 845.3 497 818 502C790.7 507 763.3 493 736.2 483C709 473 682 467 654.8 472C627.7 477 600.3 493 573 495C545.7 497 518.3 485 491 475C463.7 465 436.3 457 409 461C381.7 465 354.3 481 327 477C299.7 473 272.3 449 245.2 441C218 433 191 441 163.8 446C136.7 451 109.3 453 82 446C54.7 439 27.3 423 13.7 415L0 407Z" fill="#6efa87"></path></svg>